999
dxfrw 0.6.3
  0
SECTION
  2
HEADER
  9
$ACADVER
  1
AC1014
  9
$DWGCODEPAGE
  3
ANSI_1252
  9
$INSBASE
 10
0
 20
0
 30
0
  9
$EXTMIN
 10
-40.12500000000001
 20
-42.5
 30
0
  9
$EXTMAX
 10
90.05
 20
50.12500000000001
 30
0
  9
$LIMMIN
 10
0
 20
0
  9
$LIMMAX
 10
420
 20
297
  9
$ORTHOMODE
 70
    0
  9
$REGENMODE
 70
    1
  9
$FILLMODE
 70
    1
  9
$QTEXTMODE
 70
    0
  9
$MIRRTEXT
 70
    0
  9
$LTSCALE
 40
1
  9
$ATTMODE
 70
    0
  9
$TEXTSIZE
 40
2.5
  9
$TRACEWID
 40
15.68
  9
$TEXTSTYLE
  7
STANDARD
  9
$CLAYER
  8
Board_Outline
  9
$CELTYPE
  6
BYLAYER
  9
$CECOLOR
 62
  256
  9
$CELTSCALE
 40
1
  9
$DISPSILH
 70
    0
  9
$DIMSCALE
 40
1
  9
$DIMASZ
 40
2
  9
$DIMEXO
 40
1
  9
$DIMDLI
 40
3.75
  9
$DIMRND
 40
0
  9
$DIMDLE
 40
0
  9
$DIMEXE
 40
1
  9
$DIMTP
 40
0
  9
$DIMTM
 40
0
  9
$DIMTXT
 40
2
  9
$DIMCEN
 40
2.5
  9
$DIMTSZ
 40
1
  9
$DIMTOL
 70
    0
  9
$DIMLIM
 70
    0
  9
$DIMTIH
 70
    0
  9
$DIMTOH
 70
    0
  9
$DIMSE1
 70
    0
  9
$DIMSE2
 70
    0
  9
$DIMTAD
 70
    1
  9
$DIMZIN
 70
    1
  9
$DIMBLK
  1

  9
$DIMASO
 70
    1
  9
$DIMSHO
 70
    1
  9
$DIMPOST
  1

  9
$DIMAPOST
  1

  9
$DIMALT
 70
    0
  9
$DIMALTD
 70
    3
  9
$DIMALTF
 40
0.03937
  9
$DIMLFAC
 40
1
  9
$DIMTOFL
 70
    1
  9
$DIMTVP
 40
0
  9
$DIMTIX
 70
    0
  9
$DIMSOXD
 70
    0
  9
$DIMSAH
 70
    0
  9
$DIMBLK1
  1

  9
$DIMBLK2
  1

  9
$DIMSTYLE
  2
STANDARD
  9
$DIMCLRD
 70
    0
  9
$DIMCLRE
 70
    0
  9
$DIMCLRT
 70
    0
  9
$DIMTFAC
 40
1
  9
$DIMGAP
 40
1
  9
$DIMJUST
 70
    0
  9
$DIMSD1
 70
    0
  9
$DIMSD2
 70
    0
  9
$DIMTOLJ
 70
    0
  9
$DIMTZIN
 70
    8
  9
$DIMALTZ
 70
    0
  9
$DIMALTTZ
 70
    0
  9
$DIMUPT
 70
    0
  9
$DIMDEC
 70
    4
  9
$DIMTDEC
 70
    2
  9
$DIMALTU
 70
    2
  9
$DIMALTTD
 70
    3
  9
$DIMTXSTY
  7
standard
  9
$DIMAUNIT
 70
    0
  9
$DIMADEC
 70
    2
  9
$DIMALTRND
 40
0
  9
$DIMAZIN
 70
    0
  9
$DIMDSEP
 70
    0
  9
$DIMATFIT
 70
    3
  9
$DIMFRAC
 70
    0
  9
$DIMLDRBLK
  1
STANDARD
  9
$DIMUNIT
 70
    2
  9
$DIMLWD
 70
   -2
  9
$DIMLWE
 70
   -2
  9
$DIMTMOVE
 70
    0
  9
$LUNITS
 70
    2
  9
$LUPREC
 70
    4
  9
$SKETCHINC
 40
1
  9
$FILLETRAD
 40
0
  9
$AUNITS
 70
    0
  9
$AUPREC
 70
    2
  9
$MENU
  1
.
  9
$ELEVATION
 40
0
  9
$PELEVATION
 40
0
  9
$THICKNESS
 40
0
  9
$LIMCHECK
 70
    0
  9
$BLIPMODE
 70
    0
  9
$CHAMFERA
 40
0
  9
$CHAMFERB
 40
0
  9
$CHAMFERC
 40
0
  9
$CHAMFERD
 40
0
  9
$SKPOLY
 70
    0
  9
$USRTIMER
 70
    1
  9
$ANGBASE
 50
0
  9
$ANGDIR
 70
    0
  9
$PDMODE
 70
   34
  9
$PDSIZE
 40
0
  9
$PLINEWID
 40
0
  9
$SPLFRAME
 70
    0
  9
$SPLINETYPE
 70
    2
  9
$SPLINESEGS
 70
    8
  9
$HANDSEED
  5
20000
  9
$SURFTAB1
 70
    6
  9
$SURFTAB2
 70
    6
  9
$SURFTYPE
 70
    6
  9
$SURFU
 70
    6
  9
$SURFV
 70
    6
  9
$UCSBASE
  2

  9
$UCSNAME
  2

  9
$UCSORG
 10
0
 20
0
 30
0
  9
$UCSXDIR
 10
1
 20
0
 30
0
  9
$UCSYDIR
 10
0
 20
1
 30
0
  9
$UCSORTHOREF
  2

  9
$UCSORTHOVIEW
 70
    0
  9
$UCSORGTOP
 10
0
 20
0
 30
0
  9
$UCSORGBOTTOM
 10
0
 20
0
 30
0
  9
$UCSORGLEFT
 10
0
 20
0
 30
0
  9
$UCSORGRIGHT
 10
0
 20
0
 30
0
  9
$UCSORGFRONT
 10
0
 20
0
 30
0
  9
$UCSORGBACK
 10
0
 20
0
 30
0
  9
$PUCSBASE
  2

  9
$PUCSNAME
  2

  9
$PUCSORG
 10
0
 20
0
 30
0
  9
$PUCSXDIR
 10
1
 20
0
 30
0
  9
$PUCSYDIR
 10
0
 20
1
 30
0
  9
$PUCSORTHOREF
  2

  9
$PUCSORTHOVIEW
 70
    0
  9
$PUCSORGTOP
 10
0
 20
0
 30
0
  9
$PUCSORGBOTTOM
 10
0
 20
0
 30
0
  9
$PUCSORGLEFT
 10
0
 20
0
 30
0
  9
$PUCSORGRIGHT
 10
0
 20
0
 30
0
  9
$PUCSORGFRONT
 10
0
 20
0
 30
0
  9
$PUCSORGBACK
 10
0
 20
0
 30
0
  9
$USERI1
 70
    0
  9
$USERI2
 70
    0
  9
$USERI3
 70
    0
  9
$USERI4
 70
    0
  9
$USERI5
 70
    0
  9
$USERR1
 40
0
  9
$USERR2
 40
0
  9
$USERR3
 40
0
  9
$USERR4
 40
0
  9
$USERR5
 40
0
  9
$WORLDVIEW
 70
    1
  9
$SHADEDGE
 70
    3
  9
$SHADEDIF
 70
   70
  9
$TILEMODE
 70
    1
  9
$MAXACTVP
 70
   64
  9
$PINSBASE
 10
0
 20
0
 30
0
  9
$PLIMCHECK
 70
    0
  9
$PEXTMIN
 10
0
 20
0
 30
0
  9
$PEXTMAX
 10
0
 20
0
 30
0
  9
$GRIDMODE
 70
    1
  9
$SNAPSTYLE
 70
    0
  9
$GRIDUNIT
 10
0
 20
0
  9
$PLIMMIN
 10
0
 20
0
  9
$PLIMMAX
 10
11
 20
8.5
  9
$UNITMODE
 70
    0
  9
$VISRETAIN
 70
    1
  9
$PLINEGEN
 70
    0
  9
$PSLTSCALE
 70
    1
  9
$TREEDEPTH
 70
 3020
  9
$CMLSTYLE
  2
Standard
  9
$CMLJUST
 70
    0
  9
$CMLSCALE
 40
20
  9
$PROXYGRAPHICS
 70
    1
  9
$MEASUREMENT
 70
    1
  9
$CELWEIGHT
370
   -1
  9
$ENDCAPS
280
    0
  9
$JOINSTYLE
280
    0
  9
$LWDISPLAY
290
    0
  9
$HYPERLINKBASE
  1

  9
$STYLESHEET
  1

  9
$XEDIT
290
    1
  9
$CEPSNTYPE
380
    0
  9
$PSTYLEMODE
290
    1
  9
$EXTNAMES
290
    1
  9
$PSVPSCALE
 40
1
  9
$OLESTARTUP
290
    0
  0
ENDSEC
  0
SECTION
  2
CLASSES
  0
ENDSEC
  0
SECTION
  2
TABLES
  0
TABLE
  2
VPORT
  5
8
100
AcDbSymbolTable
 70
    1
  0
VPORT
  5
31
330
2
100
AcDbSymbolTableRecord
100
AcDbViewportTableRecord
  2
*ACTIVE
 70
    0
 10
0
 20
0
 11
1
 21
1
 12
80.2523161738812
 22
40.79077354179676
 13
0
 23
0
 14
10
 24
10
 15
10
 25
10
 16
0
 26
0
 36
1
 17
0
 27
0
 37
0
 40
140.8984764295057
 41
1.889150943396226
 42
50
 43
0
 44
0
 50
0
 51
0
 71
    0
 72
  100
 73
    1
 74
    3
 75
    0
 76
    1
 77
    0
 78
    0
  0
ENDTAB
  0
TABLE
  2
LTYPE
  5
5
100
AcDbSymbolTable
 70
    4
  0
LTYPE
  5
14
100
AcDbSymbolTableRecord
100
AcDbLinetypeTableRecord
  2
ByBlock
 70
    0
  3

 72
   65
 73
    0
 40
0
  0
LTYPE
  5
15
100
AcDbSymbolTableRecord
100
AcDbLinetypeTableRecord
  2
ByLayer
 70
    0
  3

 72
   65
 73
    0
 40
0
  0
LTYPE
  5
16
100
AcDbSymbolTableRecord
100
AcDbLinetypeTableRecord
  2
Continuous
 70
    0
  3
Solid line
 72
   65
 73
    0
 40
0
  0
LTYPE
  5
32
330
5
100
AcDbSymbolTableRecord
100
AcDbLinetypeTableRecord
  2
DOT
 70
    0
  3
Dot . . . . . . . . . . . . . . . . . . . . . .
 72
   65
 73
    2
 40
6.35
 49
0
 74
    0
 49
-6.35
 74
    0
  0
LTYPE
  5
33
330
5
100
AcDbSymbolTableRecord
100
AcDbLinetypeTableRecord
  2
DOTTINY
 70
    0
  3
Dot (.15x) .....................................
 72
   65
 73
    2
 40
0.9525
 49
0
 74
    0
 49
-0.9525
 74
    0
  0
LTYPE
  5
34
330
5
100
AcDbSymbolTableRecord
100
AcDbLinetypeTableRecord
  2
DOT2
 70
    0
  3
Dot (.5x) .....................................
 72
   65
 73
    2
 40
3.175
 49
0
 74
    0
 49
-3.175
 74
    0
  0
LTYPE
  5
35
330
5
100
AcDbSymbolTableRecord
100
AcDbLinetypeTableRecord
  2
DOTX2
 70
    0
  3
Dot (2x) .  .  .  .  .  .  .  .  .  .  .  .  .
 72
   65
 73
    2
 40
12.7
 49
0
 74
    0
 49
-12.7
 74
    0
  0
LTYPE
  5
36
330
5
100
AcDbSymbolTableRecord
100
AcDbLinetypeTableRecord
  2
DASHED
 70
    0
  3
Dashed _ _ _ _ _ _ _ _ _ _ _ _ _ _ _ _ _
 72
   65
 73
    2
 40
19.05
 49
12.7
 74
    0
 49
-6.35
 74
    0
  0
LTYPE
  5
37
330
5
100
AcDbSymbolTableRecord
100
AcDbLinetypeTableRecord
  2
DASHEDTINY
 70
    0
  3
Dashed (.15x) _ _ _ _ _ _ _ _ _ _ _ _ _ _ _ _ _
 72
   65
 73
    2
 40
2.8575
 49
1.905
 74
    0
 49
-0.9525
 74
    0
  0
LTYPE
  5
38
330
5
100
AcDbSymbolTableRecord
100
AcDbLinetypeTableRecord
  2
DASHED2
 70
    0
  3
Dashed (.5x) _ _ _ _ _ _ _ _ _ _ _ _ _ _ _ _ _
 72
   65
 73
    2
 40
9.524999999999999
 49
6.35
 74
    0
 49
-3.175
 74
    0
  0
LTYPE
  5
39
330
5
100
AcDbSymbolTableRecord
100
AcDbLinetypeTableRecord
  2
DASHEDX2
 70
    0
  3
Dashed (2x) ____  ____  ____  ____  ____  ___
 72
   65
 73
    2
 40
38.09999999999999
 49
25.4
 74
    0
 49
-12.7
 74
    0
  0
LTYPE
  5
3A
330
5
100
AcDbSymbolTableRecord
100
AcDbLinetypeTableRecord
  2
DASHDOT
 70
    0
  3
Dash dot __ . __ . __ . __ . __ . __ . __ . __
 72
   65
 73
    4
 40
25.4
 49
12.7
 74
    0
 49
-6.35
 74
    0
 49
0
 74
    0
 49
-6.35
 74
    0
  0
LTYPE
  5
3B
330
5
100
AcDbSymbolTableRecord
100
AcDbLinetypeTableRecord
  2
DASHDOTTINY
 70
    0
  3
Dash dot (.15x) _._._._._._._._._._._._._._._.
 72
   65
 73
    4
 40
3.81
 49
1.905
 74
    0
 49
-0.9525
 74
    0
 49
0
 74
    0
 49
-0.9525
 74
    0
  0
LTYPE
  5
3C
330
5
100
AcDbSymbolTableRecord
100
AcDbLinetypeTableRecord
  2
DASHDOT2
 70
    0
  3
Dash dot (.5x) _._._._._._._._._._._._._._._.
 72
   65
 73
    4
 40
12.7
 49
6.35
 74
    0
 49
-3.175
 74
    0
 49
0
 74
    0
 49
-3.175
 74
    0
  0
LTYPE
  5
3D
330
5
100
AcDbSymbolTableRecord
100
AcDbLinetypeTableRecord
  2
DASHDOTX2
 70
    0
  3
Dash dot (2x) ____  .  ____  .  ____  .  ___
 72
   65
 73
    4
 40
50.8
 49
25.4
 74
    0
 49
-12.7
 74
    0
 49
0
 74
    0
 49
-12.7
 74
    0
  0
LTYPE
  5
3E
330
5
100
AcDbSymbolTableRecord
100
AcDbLinetypeTableRecord
  2
DIVIDE
 70
    0
  3
Divide ____ . . ____ . . ____ . . ____ . . ____
 72
   65
 73
    6
 40
31.75
 49
12.7
 74
    0
 49
-6.35
 74
    0
 49
0
 74
    0
 49
-6.35
 74
    0
 49
0
 74
    0
 49
-6.35
 74
    0
  0
LTYPE
  5
3F
330
5
100
AcDbSymbolTableRecord
100
AcDbLinetypeTableRecord
  2
DIVIDETINY
 70
    0
  3
Divide (.15x) __..__..__..__..__..__..__..__.._
 72
   65
 73
    6
 40
4.7625
 49
1.905
 74
    0
 49
-0.9525
 74
    0
 49
0
 74
    0
 49
-0.9525
 74
    0
 49
0
 74
    0
 49
-0.9525
 74
    0
  0
LTYPE
  5
40
330
5
100
AcDbSymbolTableRecord
100
AcDbLinetypeTableRecord
  2
DIVIDE2
 70
    0
  3
Divide (.5x) __..__..__..__..__..__..__..__.._
 72
   65
 73
    6
 40
15.875
 49
6.35
 74
    0
 49
-3.175
 74
    0
 49
0
 74
    0
 49
-3.175
 74
    0
 49
0
 74
    0
 49
-3.175
 74
    0
  0
LTYPE
  5
41
330
5
100
AcDbSymbolTableRecord
100
AcDbLinetypeTableRecord
  2
DIVIDEX2
 70
    0
  3
Divide (2x) ________  .  .  ________  .  .  _
 72
   65
 73
    6
 40
63.5
 49
25.4
 74
    0
 49
-12.7
 74
    0
 49
0
 74
    0
 49
-12.7
 74
    0
 49
0
 74
    0
 49
-12.7
 74
    0
  0
LTYPE
  5
42
330
5
100
AcDbSymbolTableRecord
100
AcDbLinetypeTableRecord
  2
BORDER
 70
    0
  3
Border __ __ . __ __ . __ __ . __ __ . __ __ .
 72
   65
 73
    6
 40
44.45
 49
12.7
 74
    0
 49
-6.35
 74
    0
 49
12.7
 74
    0
 49
-6.35
 74
    0
 49
0
 74
    0
 49
-6.35
 74
    0
  0
LTYPE
  5
43
330
5
100
AcDbSymbolTableRecord
100
AcDbLinetypeTableRecord
  2
BORDERTINY
 70
    0
  3
Border (.15x) __.__.__.__.__.__.__.__.__.__.__.
 72
   65
 73
    6
 40
6.6675
 49
1.905
 74
    0
 49
-0.9525
 74
    0
 49
1.905
 74
    0
 49
-0.9525
 74
    0
 49
0
 74
    0
 49
-0.9525
 74
    0
  0
LTYPE
  5
44
330
5
100
AcDbSymbolTableRecord
100
AcDbLinetypeTableRecord
  2
BORDER2
 70
    0
  3
Border (.5x) __.__.__.__.__.__.__.__.__.__.__.
 72
   65
 73
    6
 40
22.225
 49
6.35
 74
    0
 49
-3.175
 74
    0
 49
6.35
 74
    0
 49
-3.175
 74
    0
 49
0
 74
    0
 49
-3.175
 74
    0
  0
LTYPE
  5
45
330
5
100
AcDbSymbolTableRecord
100
AcDbLinetypeTableRecord
  2
BORDERX2
 70
    0
  3
Border (2x) ____  ____  .  ____  ____  .  ___
 72
   65
 73
    6
 40
88.89999999999999
 49
25.4
 74
    0
 49
-12.7
 74
    0
 49
25.4
 74
    0
 49
-12.7
 74
    0
 49
0
 74
    0
 49
-12.7
 74
    0
  0
LTYPE
  5
46
330
5
100
AcDbSymbolTableRecord
100
AcDbLinetypeTableRecord
  2
CENTER
 70
    0
  3
Center ____ _ ____ _ ____ _ ____ _ ____ _ ____
 72
   65
 73
    4
 40
50.8
 49
31.75
 74
    0
 49
-6.35
 74
    0
 49
6.35
 74
    0
 49
-6.35
 74
    0
  0
LTYPE
  5
47
330
5
100
AcDbSymbolTableRecord
100
AcDbLinetypeTableRecord
  2
CENTERTINY
 70
    0
  3
Center (.15x) ___ _ ___ _ ___ _ ___ _ ___ _ ___
 72
   65
 73
    4
 40
7.62
 49
4.7625
 74
    0
 49
-0.9525
 74
    0
 49
0.9525
 74
    0
 49
-0.9525
 74
    0
  0
LTYPE
  5
48
330
5
100
AcDbSymbolTableRecord
100
AcDbLinetypeTableRecord
  2
CENTER2
 70
    0
  3
Center (.5x) ___ _ ___ _ ___ _ ___ _ ___ _ ___
 72
   65
 73
    4
 40
28.575
 49
19.05
 74
    0
 49
-3.175
 74
    0
 49
3.175
 74
    0
 49
-3.175
 74
    0
  0
LTYPE
  5
49
330
5
100
AcDbSymbolTableRecord
100
AcDbLinetypeTableRecord
  2
CENTERX2
 70
    0
  3
Center (2x) ________  __  ________  __  _____
 72
   65
 73
    4
 40
101.6
 49
63.5
 74
    0
 49
-12.7
 74
    0
 49
12.7
 74
    0
 49
-12.7
 74
    0
  0
ENDTAB
  0
TABLE
  2
LAYER
  5
2
100
AcDbSymbolTable
 70
    1
  0
LAYER
  5
10
330
2
100
AcDbSymbolTableRecord
100
AcDbLayerTableRecord
  2
0
 70
    0
 62
    7
  6
CONTINUOUS
370
    0
390
F
  0
LAYER
  5
4A
330
2
100
AcDbSymbolTableRecord
100
AcDbLayerTableRecord
  2
Board_Outline
 70
    0
 62
    7
  6
CONTINUOUS
370
   15
390
F
  0
LAYER
  5
4B
330
2
100
AcDbSymbolTableRecord
100
AcDbLayerTableRecord
  2
Dimension
 70
    0
 62
    3
  6
CONTINUOUS
290
0
370
    0
390
F
  0
ENDTAB
  0
TABLE
  2
STYLE
  5
3
100
AcDbSymbolTable
 70
    3
  0
STYLE
  5
4C
330
2
100
AcDbSymbolTableRecord
100
AcDbTextStyleTableRecord
  2
Standard
 70
    0
 40
0
 41
1
 50
0
 71
    0
 42
1
  3
txt
  4

  0
ENDTAB
  0
TABLE
  2
VIEW
  5
6
100
AcDbSymbolTable
 70
    0
  0
ENDTAB
  0
TABLE
  2
UCS
  5
7
100
AcDbSymbolTable
 70
    0
  0
ENDTAB
  0
TABLE
  2
APPID
  5
9
100
AcDbSymbolTable
 70
    1
  0
APPID
  5
12
100
AcDbSymbolTableRecord
100
AcDbRegAppTableRecord
  2
ACAD
 70
    0
  0
APPID
  5
4D
100
AcDbSymbolTableRecord
100
AcDbRegAppTableRecord
  2
LibreCad
 70
    0
  0
ENDTAB
  0
TABLE
  2
DIMSTYLE
  5
A
100
AcDbSymbolTable
 70
    1
  0
DIMSTYLE
105
4E
330
A
100
AcDbSymbolTableRecord
100
AcDbDimStyleTableRecord
  2
Standard
 70
    0
 40
1
 41
2
 42
1
 43
0.38
 44
1
 45
0
 46
0
 47
0
 48
0
 49
0.04
140
2
141
0.09
142
1
143
25.4
144
1
145
0
146
1
147
1
 71
    0
 72
    0
 73
    0
 74
    1
 75
    0
 76
    0
 77
    0
 78
    1
170
    0
171
    2
172
    0
173
    0
174
    0
175
    0
176
    0
177
    0
178
    0
270
    2
271
    4
272
    4
273
    2
274
    2
275
    0
280
    0
281
    0
282
    0
283
    1
284
    0
285
    0
286
    0
287
    3
288
    0
340
standard
  0
ENDTAB
  0
TABLE
  2
BLOCK_RECORD
  5
1
100
AcDbSymbolTable
 70
    2
  0
BLOCK_RECORD
  5
1F
100
AcDbSymbolTableRecord
100
AcDbBlockTableRecord
  2
*Model_Space
  0
BLOCK_RECORD
  5
1E
100
AcDbSymbolTableRecord
100
AcDbBlockTableRecord
  2
*Paper_Space
  0
BLOCK_RECORD
  5
4F
100
AcDbSymbolTableRecord
100
AcDbBlockTableRecord
  2
*D5
  0
BLOCK_RECORD
  5
52
100
AcDbSymbolTableRecord
100
AcDbBlockTableRecord
  2
*D9
  0
BLOCK_RECORD
  5
55
100
AcDbSymbolTableRecord
100
AcDbBlockTableRecord
  2
*D1
  0
BLOCK_RECORD
  5
58
100
AcDbSymbolTableRecord
100
AcDbBlockTableRecord
  2
*D2
  0
BLOCK_RECORD
  5
5B
100
AcDbSymbolTableRecord
100
AcDbBlockTableRecord
  2
*D3
  0
BLOCK_RECORD
  5
5E
100
AcDbSymbolTableRecord
100
AcDbBlockTableRecord
  2
*D4
  0
BLOCK_RECORD
  5
61
100
AcDbSymbolTableRecord
100
AcDbBlockTableRecord
  2
*D6
  0
BLOCK_RECORD
  5
64
100
AcDbSymbolTableRecord
100
AcDbBlockTableRecord
  2
*D8
  0
BLOCK_RECORD
  5
67
100
AcDbSymbolTableRecord
100
AcDbBlockTableRecord
  2
*D7
  0
ENDTAB
  0
ENDSEC
  0
SECTION
  2
BLOCKS
  0
BLOCK
  5
20
100
AcDbEntity
  8
0
100
AcDbBlockBegin
  2
*Model_Space
 70
    0
 10
0
 20
0
 30
0
  3
*Model_Space
  1

  0
ENDBLK
  5
21
100
AcDbEntity
  8
0
100
AcDbBlockEnd
  0
BLOCK
  5
1C
100
AcDbEntity
  8
0
100
AcDbBlockBegin
  2
*Paper_Space
 70
    0
 10
0
 20
0
 30
0
  3
*Paper_Space
  1

  0
ENDBLK
  5
1D
100
AcDbEntity
  8
0
100
AcDbBlockEnd
  0
BLOCK
  5
50
100
AcDbEntity
  8
0
100
AcDbBlockBegin
  2
*D5
 70
    1
 10
0
 20
0
  3
*D5
  1

  0
LINE
  5
6A
100
AcDbEntity
  8
Dimension
  6
ByBlock
 62
    0
100
AcDbLine
 10
39.05131670194949
 20
20.31622776601684
 11
50.07765074093921
 21
16.6407830863536
  0
LINE
  5
6B
100
AcDbEntity
  8
Dimension
  6
ByBlock
 62
    0
100
AcDbLine
 10
39.05131670194949
 20
-0.3162277660168342
 11
50.07765074093921
 21
3.359216913646406
  0
ARC
  5
6C
100
AcDbEntity
  8
Dimension
  6
ByBlock
 62
    0
100
AcDbCircle
 10
70
 20
10
 40
20
100
AcDbArc
 50
161.565051177078
 51
198.434948822922
  0
SOLID
  5
6D
100
AcDbEntity
  8
Dimension
  6
ByBlock
 62
    0
100
AcDbTrace
 10
51.02633403898972
 20
16.32455532033676
 30
0
 11
50.81030415653112
 21
14.30855964665216
 31
0
 12
50.16869127938472
 22
14.48734102599676
 32
0
 13
50.16869127938472
 23
14.48734102599676
 33
0
  0
SOLID
  5
6E
100
AcDbEntity
  8
Dimension
  6
ByBlock
 62
    0
100
AcDbTrace
 10
51.02633403898972
 20
3.675444679663245
 30
0
 11
50.16869127938472
 21
5.512658974003243
 31
0
 12
50.81030415653112
 22
5.691440353347847
 32
0
 13
50.81030415653112
 23
5.691440353347847
 33
0
  0
MTEXT
  5
6F
100
AcDbEntity
  8
Dimension
  6
CONTINUOUS
 62
    0
100
AcDbMText
 10
49
 20
10
 30
0
 40
2
 41
7.555555555555804
 71
    8
 72
    1
  1
36.87%%D
  7
standard
210
0
220
0
230
1
 50
450
 73
    2
 44
1
  0
ENDBLK
  5
51
100
AcDbEntity
  8
0
100
AcDbBlockEnd
  0
BLOCK
  5
53
100
AcDbEntity
  8
0
100
AcDbBlockBegin
  2
*D9
 70
    1
 10
0
 20
0
  3
*D9
  1

  0
LINE
  5
70
100
AcDbEntity
  8
Dimension
  6
ByBlock
 62
    0
100
AcDbLine
 10
-37.5
 20
2.5
 11
-14.7793780283829
 21
19.71259240274022
  0
MTEXT
  5
71
100
AcDbEntity
  8
Dimension
  6
CONTINUOUS
 62
    0
100
AcDbMText
 10
-27.34740439018238
 20
12.70048049767813
 30
0
 40
2
 41
9.777777777777899
 71
    5
 72
    1
  1
28.5044
  7
standard
210
0
220
0
230
1
 50
37.14668669802177
 73
    2
 44
1
  0
ENDBLK
  5
54
100
AcDbEntity
  8
0
100
AcDbBlockEnd
  0
BLOCK
  5
56
100
AcDbEntity
  8
0
100
AcDbBlockBegin
  2
*D1
 70
    1
 10
0
 20
0
  3
*D1
  1

  0
LINE
  5
72
100
AcDbEntity
  8
Dimension
  6
ByBlock
 62
    0
100
AcDbLine
 10
-30
 20
50
 11
70
 21
50
  0
LINE
  5
73
100
AcDbEntity
  8
Dimension
  6
ByBlock
 62
    0
100
AcDbLine
 10
-29.29289321881345
 20
50.70710678118655
 11
-30.70710678118655
 21
49.29289321881345
  0
LINE
  5
74
100
AcDbEntity
  8
Dimension
  6
ByBlock
 62
    0
100
AcDbLine
 10
70.70710678118655
 20
50.70710678118655
 11
69.29289321881345
 21
49.29289321881345
  0
MTEXT
  5
75
100
AcDbEntity
  8
Dimension
  6
CONTINUOUS
 62
    0
100
AcDbMText
 10
20
 20
52
 30
0
 40
2
 41
10.44444444444444
 71
    5
 72
    1
  1
100.0000
  7
standard
210
0
220
0
230
1
 50
0
 73
    2
 44
1
  0
LINE
  5
76
100
AcDbEntity
  8
Dimension
  6
ByBlock
 62
    0
100
AcDbLine
 10
-30
 20
31.00000000000001
 11
-30
 21
51
  0
LINE
  5
77
100
AcDbEntity
  8
Dimension
  6
ByBlock
 62
    0
100
AcDbLine
 10
70
 20
11
 11
70
 21
51
  0
ENDBLK
  5
57
100
AcDbEntity
  8
0
100
AcDbBlockEnd
  0
BLOCK
  5
59
100
AcDbEntity
  8
0
100
AcDbBlockBegin
  2
*D2
 70
    1
 10
0
 20
0
  3
*D2
  1

  0
LINE
  5
78
100
AcDbEntity
  8
Dimension
  6
ByBlock
 62
    0
100
AcDbLine
 10
2.131628207280301e-014
 20
30
 11
40
 21
30
  0
LINE
  5
79
100
AcDbEntity
  8
Dimension
  6
ByBlock
 62
    0
100
AcDbLine
 10
0.707106781186569
 20
30.70710678118655
 11
-0.7071067811865264
 21
29.29289321881345
  0
LINE
  5
7A
100
AcDbEntity
  8
Dimension
  6
ByBlock
 62
    0
100
AcDbLine
 10
40.70710678118655
 20
30.70710678118655
 11
39.29289321881345
 21
29.29289321881345
  0
MTEXT
  5
7B
100
AcDbEntity
  8
Dimension
  6
CONTINUOUS
 62
    0
100
AcDbMText
 10
20.00000000000001
 20
32
 30
0
 40
2
 41
9.555555555555555
 71
    5
 72
    1
  1
40.0000
  7
standard
210
0
220
0
230
1
 50
0
 73
    2
 44
1
  0
LINE
  5
7C
100
AcDbEntity
  8
Dimension
  6
ByBlock
 62
    0
100
AcDbLine
 10
2.172792653264144e-014
 20
21
 11
2.137751239049412e-014
 21
31
  0
LINE
  5
7D
100
AcDbEntity
  8
Dimension
  6
ByBlock
 62
    0
100
AcDbLine
 10
40
 20
21
 11
40
 21
31
  0
ENDBLK
  5
5A
100
AcDbEntity
  8
0
100
AcDbBlockEnd
  0
BLOCK
  5
5C
100
AcDbEntity
  8
0
100
AcDbBlockBegin
  2
*D3
 70
    1
 10
0
 20
0
  3
*D3
  1

  0
LINE
  5
7E
100
AcDbEntity
  8
Dimension
  6
ByBlock
 62
    0
100
AcDbLine
 10
40
 20
30
 11
70
 21
30
  0
LINE
  5
7F
100
AcDbEntity
  8
Dimension
  6
ByBlock
 62
    0
100
AcDbLine
 10
40.70710678118655
 20
30.70710678118655
 11
39.29289321881345
 21
29.29289321881345
  0
LINE
  5
80
100
AcDbEntity
  8
Dimension
  6
ByBlock
 62
    0
100
AcDbLine
 10
70.70710678118655
 20
30.70710678118655
 11
69.29289321881345
 21
29.29289321881345
  0
MTEXT
  5
81
100
AcDbEntity
  8
Dimension
  6
CONTINUOUS
 62
    0
100
AcDbMText
 10
55
 20
32
 30
0
 40
2
 41
9.333333333333456
 71
    5
 72
    1
  1
30.0000
  7
standard
210
0
220
0
230
1
 50
0
 73
    2
 44
1
  0
LINE
  5
82
100
AcDbEntity
  8
Dimension
  6
ByBlock
 62
    0
100
AcDbLine
 10
40
 20
21
 11
40
 21
31
  0
LINE
  5
83
100
AcDbEntity
  8
Dimension
  6
ByBlock
 62
    0
100
AcDbLine
 10
70
 20
11
 11
70
 21
31
  0
ENDBLK
  5
5D
100
AcDbEntity
  8
0
100
AcDbBlockEnd
  0
BLOCK
  5
5F
100
AcDbEntity
  8
0
100
AcDbBlockBegin
  2
*D4
 70
    1
 10
0
 20
0
  3
*D4
  1

  0
LINE
  5
84
100
AcDbEntity
  8
Dimension
  6
ByBlock
 62
    0
100
AcDbLine
 10
90
 20
20
 11
90
 21
0
  0
LINE
  5
85
100
AcDbEntity
  8
Dimension
  6
ByBlock
 62
    0
100
AcDbLine
 10
90.70710678118655
 20
19.29289321881345
 11
89.29289321881345
 21
20.70710678118655
  0
LINE
  5
86
100
AcDbEntity
  8
Dimension
  6
ByBlock
 62
    0
100
AcDbLine
 10
90.70710678118655
 20
-0.7071067811865476
 11
89.29289321881345
 21
0.7071067811865476
  0
MTEXT
  5
87
100
AcDbEntity
  8
Dimension
  6
CONTINUOUS
 62
    0
100
AcDbMText
 10
88
 20
10
 30
0
 40
2
 41
9.333333333333332
 71
    5
 72
    1
  1
20.0000
  7
standard
210
0
220
0
230
1
 50
90
 73
    2
 44
1
  0
LINE
  5
88
100
AcDbEntity
  8
Dimension
  6
ByBlock
 62
    0
100
AcDbLine
 10
41
 20
20
 11
91
 21
20
  0
LINE
  5
89
100
AcDbEntity
  8
Dimension
  6
ByBlock
 62
    0
100
AcDbLine
 10
41
 20
0
 11
91
 21
0
  0
ENDBLK
  5
60
100
AcDbEntity
  8
0
100
AcDbBlockEnd
  0
BLOCK
  5
62
100
AcDbEntity
  8
0
100
AcDbBlockBegin
  2
*D6
 70
    1
 10
0
 20
0
  3
*D6
  1

  0
LINE
  5
8A
100
AcDbEntity
  8
Dimension
  6
ByBlock
 62
    0
100
AcDbLine
 10
-37.5
 20
-42.5
 11
-8.145631425227467
 21
24.21447403357392
  0
MTEXT
  5
8B
100
AcDbEntity
  8
Dimension
  6
CONTINUOUS
 62
    0
100
AcDbMText
 10
-24.65344577745926
 20
-8.337285754681005
 30
0
 40
2
 41
9.333333333333458
 71
    5
 72
    1
  1
72.8869
  7
standard
210
0
220
0
230
1
 50
66.25050550713324
 73
    2
 44
1
  0
ENDBLK
  5
63
100
AcDbEntity
  8
0
100
AcDbBlockEnd
  0
BLOCK
  5
65
100
AcDbEntity
  8
0
100
AcDbBlockBegin
  2
*D8
 70
    1
 10
0
 20
0
  3
*D8
  1

  0
LINE
  5
8C
100
AcDbEntity
  8
Dimension
  6
ByBlock
 62
    0
100
AcDbLine
 10
-40
 20
29.99999999999999
 11
-40
 21
-10.00000000000002
  0
LINE
  5
8D
100
AcDbEntity
  8
Dimension
  6
ByBlock
 62
    0
100
AcDbLine
 10
-39.29289321881345
 20
29.29289321881345
 11
-40.70710678118655
 21
30.70710678118654
  0
LINE
  5
8E
100
AcDbEntity
  8
Dimension
  6
ByBlock
 62
    0
100
AcDbLine
 10
-39.29289321881345
 20
-10.70710678118657
 11
-40.70710678118655
 21
-9.292893218813473
  0
MTEXT
  5
8F
100
AcDbEntity
  8
Dimension
  6
CONTINUOUS
 62
    0
100
AcDbMText
 10
-42
 20
9.999999999999986
 30
0
 40
2
 41
9.555555555555555
 71
    5
 72
    1
  1
40.0000
  7
standard
210
0
220
0
230
1
 50
90
 73
    2
 44
1
  0
LINE
  5
90
100
AcDbEntity
  8
Dimension
  6
ByBlock
 62
    0
100
AcDbLine
 10
-31
 20
30
 11
-41
 21
29.99999999999999
  0
LINE
  5
91
100
AcDbEntity
  8
Dimension
  6
ByBlock
 62
    0
100
AcDbLine
 10
-31.0000000000001
 20
-10.00000000000002
 11
-41
 21
-10.00000000000002
  0
ENDBLK
  5
66
100
AcDbEntity
  8
0
100
AcDbBlockEnd
  0
BLOCK
  5
68
100
AcDbEntity
  8
0
100
AcDbBlockBegin
  2
*D7
 70
    1
 10
0
 20
0
  3
*D7
  1

  0
LINE
  5
92
100
AcDbEntity
  8
Dimension
  6
ByBlock
 62
    0
100
AcDbLine
 10
-23.9674881290405
 20
10.00000000000001
 11
-10.93497625808101
 21
10
  0
MTEXT
  5
93
100
AcDbEntity
  8
Dimension
  6
CONTINUOUS
 62
    0
100
AcDbMText
 10
-17.45123219356075
 20
12.00000000000001
 30
0
 40
2
 41
8.888888888889259
 71
    5
 72
    1
  1
13.0325
  7
standard
210
0
220
0
230
1
 50
359.9999999999999
 73
    2
 44
1
  0
ENDBLK
  5
69
100
AcDbEntity
  8
0
100
AcDbBlockEnd
  0
ENDSEC
  0
SECTION
  2
ENTITIES
  0
LINE
  5
94
100
AcDbEntity
  8
Board_Outline
  6
ByLayer
 62
  256
100
AcDbLine
 10
7.494005416219807e-016
 20
-3.05311331771918e-016
 11
40
 21
0
  0
LINE
  5
95
100
AcDbEntity
  8
Board_Outline
  6
ByLayer
 62
  256
100
AcDbLine
 10
40
 20
0
 11
70
 21
10
  0
LINE
  5
96
100
AcDbEntity
  8
Board_Outline
  6
ByLayer
 62
  256
100
AcDbLine
 10
40
 20
20
 11
0
 21
20
  0
ARC
  5
97
100
AcDbEntity
  8
Board_Outline
  6
ByLayer
 62
  256
100
AcDbCircle
 10
-37.5
 20
-42.5
 40
72.88689868556627
100
AcDbArc
 50
59.03624346792648
 51
84.0938588862295
  0
ARC
  5
98
100
AcDbEntity
  8
Board_Outline
  6
ByLayer
 62
  256
100
AcDbCircle
 10
-37.5
 20
2.5
 40
28.50438562747845
100
AcDbArc
 50
28.99613233253544
 51
74.74488129694222
  0
ARC
  5
99
100
AcDbEntity
  8
Board_Outline
  6
ByLayer
 62
  256
100
AcDbCircle
 10
-23.9674881290405
 20
10.00000000000001
 40
13.0325118709595
100
AcDbArc
 50
359.9999999999999
 51
28.99613509844303
  0
ARC
  5
9A
100
AcDbEntity
  8
Board_Outline
  6
ByLayer
 62
  256
100
AcDbCircle
 10
-37.5
 20
62.5
 40
72.88689868556627
100
AcDbArc
 50
275.9061411137705
 51
300.9637565320735
  0
ARC
  5
9B
100
AcDbEntity
  8
Board_Outline
  6
ByLayer
 62
  256
100
AcDbCircle
 10
-37.5
 20
17.5
 40
28.50438562747845
100
AcDbArc
 50
285.2551187030577
 51
331.0038676674645
  0
ARC
  5
9C
100
AcDbEntity
  8
Board_Outline
  6
ByLayer
 62
  256
100
AcDbCircle
 10
-23.9674881290405
 20
9.999999999999986
 40
13.0325118709595
100
AcDbArc
 50
331.0038649015569
 51
5.088887490341627e-014
  0
LINE
  5
9D
100
AcDbEntity
  8
Board_Outline
  6
ByLayer
 62
  256
100
AcDbLine
 10
70
 20
10
 11
40
 21
20
  0
DIMENSION
  5
9E
100
AcDbEntity
  8
Dimension
  6
ByLayer
 62
  256
100
AcDbDimension
  2
*D1
 10
70
 20
50
 30
0
 11
20
 21
52
 31
0
 70
   32
 71
    5
  3
Standard
 53
0
210
0
220
0
230
1
100
AcDbAlignedDimension
 13
-30
 23
30.00000000000001
 33
0
 14
70
 24
10
 34
0
100
AcDbRotatedDimension
  0
DIMENSION
  5
9F
100
AcDbEntity
  8
Dimension
  6
ByLayer
 62
  256
100
AcDbDimension
  2
*D2
 10
40
 20
30
 30
0
 11
20.00000000000001
 21
32
 31
0
 70
   32
 71
    5
  3
Standard
 53
0
210
0
220
0
230
1
100
AcDbAlignedDimension
 13
2.166669621495032e-014
 23
20
 33
0
 14
40
 24
20
 34
0
100
AcDbRotatedDimension
  0
DIMENSION
  5
A0
100
AcDbEntity
  8
Dimension
  6
ByLayer
 62
  256
100
AcDbDimension
  2
*D3
 10
70
 20
30
 30
0
 11
55
 21
32
 31
0
 70
   32
 71
    5
  3
Standard
 53
0
210
0
220
0
230
1
100
AcDbAlignedDimension
 13
40
 23
20
 33
0
 14
70
 24
10
 34
0
100
AcDbRotatedDimension
  0
DIMENSION
  5
A1
100
AcDbEntity
  8
Dimension
  6
ByLayer
 62
  256
100
AcDbDimension
  2
*D4
 10
90
 20
-6.123031769111886e-015
 30
0
 11
88
 21
10
 31
0
 70
   32
 71
    5
  3
Standard
 53
0
210
0
220
0
230
1
100
AcDbAlignedDimension
 13
40
 23
20
 33
0
 14
40
 24
0
 34
0
 50
90
100
AcDbRotatedDimension
  0
DIMENSION
  5
A2
100
AcDbEntity
  8
Dimension
  6
ByLayer
 62
  256
100
AcDbDimension
  2
*D5
 10
40
 20
0
 30
0
 11
0
 21
0
 31
0
 70
   34
 71
    5
  3
Standard
 53
0
210
0
220
0
230
1
100
AcDb2LineAngularDimension
 13
70
 23
10
 33
0
 14
40
 24
20
 34
0
 15
70
 25
10
 35
0
 16
50
 26
10
 36
0
  0
DIMENSION
  5
A3
100
AcDbEntity
  8
Dimension
  6
ByLayer
 62
  256
100
AcDbDimension
  2
*D6
 10
-37.5
 20
-42.5
 30
0
 11
-24.65344577745926
 21
-8.337285754681005
 31
0
 70
   36
 71
    5
  3
Standard
 53
0
210
0
220
0
230
1
100
AcDbRadialDimension
 15
-8.145631425227467
 25
24.21447403357392
 35
0
 40
0
  0
DIMENSION
  5
A4
100
AcDbEntity
  8
Dimension
  6
ByLayer
 62
  256
100
AcDbDimension
  2
*D7
 10
-23.9674881290405
 20
10.00000000000001
 30
0
 11
-17.45123219356075
 21
12.00000000000001
 31
0
 70
   36
 71
    5
  3
Standard
 53
0
210
0
220
0
230
1
100
AcDbRadialDimension
 15
-10.93497625808101
 25
10
 35
0
 40
0
  0
DIMENSION
  5
A5
100
AcDbEntity
  8
Dimension
  6
ByLayer
 62
  256
100
AcDbDimension
  2
*D8
 10
-40
 20
-10.00000000000002
 30
0
 11
-42
 21
9.999999999999986
 31
0
 70
   32
 71
    5
  3
Standard
 53
0
210
0
220
0
230
1
100
AcDbAlignedDimension
 13
-30
 23
30
 33
0
 14
-30.0000000000001
 24
-10.00000000000002
 34
0
 50
90
100
AcDbRotatedDimension
  0
DIMENSION
  5
A6
100
AcDbEntity
  8
Dimension
  6
ByLayer
 62
  256
100
AcDbDimension
  2
*D9
 10
-37.5
 20
2.5
 30
0
 11
-27.34740439018238
 21
12.70048049767813
 31
0
 70
   36
 71
    5
  3
Standard
 53
0
210
0
220
0
230
1
100
AcDbRadialDimension
 15
-14.7793780283829
 25
19.71259240274022
 35
0
 40
0
  0
ENDSEC
  0
SECTION
  2
OBJECTS
  0
DICTIONARY
  5
C
100
AcDbDictionary
281
    1
  3
ACAD_GROUP
350
D
  0
DICTIONARY
  5
D
330
C
100
AcDbDictionary
281
    1
  0
ENDSEC
  0
EOF
